# Blender v2.79 (sub 0) OBJ File: 'rocas.blend'
# www.blender.org
mtllib zacate.mtl
o Plane.001_Plane.010
v 0.061096 0.013618 0.093798
v -0.205959 0.909786 -0.253162
v -0.704072 1.190482 -0.569526
v -1.369221 1.183113 -0.836264
v 0.081486 0.051765 0.141605
v -0.222422 0.922586 -0.210667
v -0.721989 1.208211 -0.545778
v -1.372214 1.186532 -0.831022
v -0.022753 -0.020740 0.131448
v -0.117593 0.344555 0.197070
v -0.066663 0.748618 0.434560
v 0.123353 0.957289 0.713852
v -0.039412 -0.018148 0.082675
v -0.100904 0.352787 0.179686
v -0.054573 0.754376 0.421727
v 0.125784 0.958472 0.711314
v -0.046420 -0.025602 0.102970
v -0.095242 0.356100 0.172522
v 0.014506 0.800966 0.281653
v 0.291846 1.070812 0.370642
v -0.043764 -0.025602 0.078230
v -0.092582 0.361611 0.147798
v 0.056260 0.782216 0.262930
v 0.324550 1.039290 0.363418
v -0.096376 -0.002709 0.052308
v -0.358537 0.596252 0.161278
v -0.991750 1.150121 0.257959
v -1.687642 1.312848 0.276937
v -0.097211 -0.002709 0.098775
v -0.397206 0.561806 0.203027
v -0.969995 1.182786 0.299787
v -1.687763 1.311538 0.283703
v -0.069795 -0.000492 0.079246
v -0.271401 0.384979 0.211094
v -0.632572 0.766995 0.448324
v -1.029915 0.890300 0.715021
v -0.051817 -0.000492 0.106468
v -0.253423 0.385070 0.238317
v -0.602750 0.808250 0.456960
v -1.028319 0.898115 0.714926
v -0.097831 -0.020740 0.102016
v -0.029534 0.846621 -0.116177
v 0.055903 1.450493 -0.606616
v 0.323085 1.524074 -1.270107
v -0.143317 -0.020740 0.088920
v -0.075019 0.846100 -0.129272
v 0.024543 1.459190 -0.618648
v 0.316815 1.525813 -1.272513
v -0.099807 -0.018702 0.094196
v -0.051740 0.367680 0.070589
v 0.131323 0.792159 0.162511
v 0.403638 0.976788 0.389127
v -0.082272 -0.018702 0.076088
v -0.003199 0.353426 0.084534
v 0.143972 0.789342 0.149242
v 0.406191 0.976259 0.386490
v -0.089314 -0.014317 0.096212
v 0.014568 0.347434 0.052261
v 0.217267 0.763117 0.006053
v 0.567573 0.949738 0.016641
v -0.041307 -0.020740 0.077265
v -0.025157 0.358031 0.019923
v 0.250380 0.727478 -0.002830
v 0.568011 0.949121 0.013011
v -0.184933 -0.020740 0.046776
v -0.249661 0.640246 -0.059716
v -0.601047 1.402457 -0.196904
v -1.222176 1.772443 -0.276438
v -0.186274 -0.020740 0.093449
v -0.207051 0.661041 -0.013755
v -0.601872 1.407965 -0.162885
v -1.229081 1.761571 -0.272806
v -0.113083 -0.020125 0.072891
v -0.184885 0.454848 0.060915
v -0.372884 1.012613 0.112282
v -0.747062 1.273233 0.334016
v -0.094668 -0.020125 0.099557
v -0.166470 0.458599 0.087581
v -0.387297 0.987225 0.154869
v -0.744380 1.273779 0.337899
v -0.082803 -0.020740 0.081044
v -0.156453 0.869256 0.066576
v -0.514278 1.582741 0.110453
v -1.258690 1.736568 0.051177
v -0.082280 -0.020740 0.128378
v -0.155930 0.869256 0.113910
v -0.518351 1.594295 0.142845
v -1.248702 1.740827 0.057475
v -1.513708 1.441356 -0.141166
v -1.513900 1.443239 -0.134492
v -0.076023 -0.014984 0.084092
v -0.034056 0.351158 0.001614
v 0.066301 0.743279 -0.195620
v 0.218667 0.930521 -0.495068
v -0.078096 -0.020740 0.032008
v -0.076496 0.365529 0.028863
v 0.035039 0.775624 -0.175076
v 0.215362 0.930521 -0.496750
v -0.077560 -0.014984 0.073586
v -0.093282 0.351158 -0.017610
v -0.130878 0.743279 -0.235691
v -0.184167 0.970565 -0.544798
v -0.110384 -0.020740 0.033094
v -0.118379 0.351158 -0.013283
v -0.149154 0.743279 -0.232540
v -0.187821 0.970565 -0.544168
v -0.109105 -0.014800 0.135434
v -0.086024 0.663196 0.221843
v 0.023004 1.410025 0.630015
v 0.186747 1.765591 1.243021
v -0.063372 -0.014800 0.123218
v -0.040295 0.663155 0.209614
v 0.064651 1.377522 0.652353
v 0.193406 1.765591 1.241242
v -0.057157 -0.020740 0.131602
v -0.010327 0.448516 0.169564
v 0.184768 0.983314 0.327718
v 0.526876 1.230708 0.605048
v -0.036613 -0.020740 0.106259
v -0.023589 0.462929 0.116817
v 0.199606 0.983156 0.309164
v 0.529867 1.230708 0.601358
v -0.057426 -0.025394 0.017290
v 0.163086 0.836222 0.126468
v 0.047139 1.564314 0.389014
v -0.548317 1.891485 0.619904
v -0.041166 -0.025394 0.060612
v 0.179347 0.826242 0.169789
v 0.060349 1.566514 0.421022
v -0.545676 1.891925 0.626304
v -0.021784 -0.025394 -0.019872
v 0.089233 0.329245 -0.032109
v 0.234655 0.715545 -0.211986
v 0.328548 0.916377 -0.526304
v -0.045838 -0.025394 -0.021865
v 0.065179 0.337372 -0.034101
v 0.217139 0.721463 -0.213437
v 0.325045 0.917560 -0.526594
v -0.053318 -0.025394 -0.022112
v 0.030112 0.348181 -0.027275
v 0.045810 0.773609 -0.173891
v -0.057251 1.033846 -0.437709
v -0.074209 -0.025394 -0.008596
v 0.009220 0.353610 -0.013759
v 0.030596 0.777562 -0.164048
v -0.060293 1.034636 -0.435741
v -0.012347 -0.025394 0.121414
v 0.232999 0.566143 0.254546
v 0.686695 1.145467 0.653194
v 1.139658 1.308193 1.181823
v 0.024275 -0.025394 0.092801
v 0.269622 0.557151 0.225934
v 0.713363 1.138919 0.632358
v 1.144990 1.306884 1.177657
v 0.006515 -0.025394 0.061904
v 0.196666 0.380324 0.123126
v 0.608389 0.762340 0.254301
v 1.070937 0.848308 0.400654
v 0.016340 -0.025394 0.030796
v 0.206492 0.380416 0.092018
v 0.615545 0.762407 0.231647
v 1.072368 0.848321 0.396125
v 0.002631 -0.025394 0.056984
v -0.209874 0.841967 0.141331
v -0.644657 1.445838 0.383805
v -1.326488 1.475075 0.605551
v 0.021101 -0.025394 0.100565
v -0.191403 0.841446 0.184912
v -0.634255 1.454536 0.415742
v -1.324408 1.476814 0.611937
v 0.001977 -0.025394 0.017837
v -0.045433 0.352409 -0.003301
v -0.087394 0.758275 -0.193678
v -0.090125 0.972134 -0.513367
v -0.023132 -0.025394 0.015619
v -0.070542 0.348772 -0.005519
v -0.105679 0.755627 -0.195293
v -0.093781 0.971605 -0.513690
v -0.030927 -0.025394 0.015302
v -0.106801 0.342780 0.001002
v -0.282608 0.725912 -0.157217
v -0.488550 0.905254 -0.428084
v -0.052191 -0.025394 0.028662
v -0.128064 0.338540 0.014362
v -0.298093 0.722824 -0.147488
v -0.491646 0.904637 -0.426138
v 0.014570 -0.025394 0.159433
v -0.027394 0.635592 0.276775
v 0.111658 1.366748 0.659463
v 0.436107 1.728992 1.183502
v 0.051670 -0.025394 0.131083
v 0.009707 0.643374 0.248425
v 0.138675 1.372416 0.638818
v 0.441509 1.730125 1.179374
v 0.033607 -0.025394 0.100037
v 0.025523 0.450194 0.150491
v 0.219332 0.979840 0.271208
v 0.591690 1.268579 0.415221
v 0.042726 -0.025394 0.068939
v 0.034641 0.453945 0.119394
v 0.225972 0.982571 0.248563
v 0.593018 1.269125 0.410693
v -0.023124 -0.025394 0.058516
v 0.012016 0.864602 0.124839
v 0.295242 1.543147 0.392891
v 0.693833 1.690506 0.971103
v 0.013316 -0.025394 0.028303
v 0.048456 0.864602 0.094626
v 0.321778 1.552567 0.372619
v 0.699139 1.692390 0.967050
v 0.693833 1.404167 1.279822
v 0.699139 1.406050 1.275769
v -0.069502 -0.025394 0.060834
v -0.115524 0.346504 0.070668
v -0.331936 0.738624 0.116912
v -0.660502 0.925867 0.187122
v -0.064180 -0.025394 0.085739
v -0.110202 0.346504 0.095574
v -0.328061 0.738624 0.135049
v -0.659727 0.925867 0.190748
v -0.062170 -0.025394 0.093366
v -0.093161 0.346504 0.128781
v -0.238895 0.738624 0.295318
v -0.460153 0.925867 0.548161
v -0.043004 -0.025394 0.110137
v -0.073996 0.346504 0.145553
v -0.224938 0.738624 0.307531
v -0.457363 0.925867 0.550603
v 0.062418 -0.025394 0.007930
v 0.113851 0.644040 -0.062823
v 0.355705 1.372868 -0.395528
v 0.722898 1.720893 -0.900653
v 0.024129 -0.025394 -0.019904
v 0.075562 0.644040 -0.090656
v 0.327823 1.372868 -0.415796
v 0.717323 1.720893 -0.904706
v 0.000000 -0.025394 0.006756
v 0.000000 0.443861 -0.053527
v -0.000000 0.946157 -0.337004
v -0.000000 1.186009 -0.767388
v -0.032623 -0.025394 0.006756
v -0.032623 0.443861 -0.053527
v -0.023757 0.946157 -0.337004
v -0.004750 1.186009 -0.767388
vt 0.645903 0.408475
vt 0.452146 0.369195
vt 0.454948 0.360365
vt 0.646285 0.406658
vt 0.239499 0.391859
vt 0.238787 0.379216
vt 0.000359 0.408475
vt 0.001640 0.391275
vt 0.742639 0.557920
vt 0.636415 0.557920
vt 0.636358 0.552959
vt 0.742639 0.556927
vt 0.510298 0.557864
vt 0.510328 0.551051
vt 0.407853 0.560389
vt 0.406543 0.546646
vt 0.329730 0.670746
vt 0.228333 0.702391
vt 0.227637 0.689180
vt 0.326087 0.658994
vt 0.104815 0.677474
vt 0.105759 0.670726
vt 0.000877 0.665630
vt 0.000359 0.658994
vt 0.583094 0.245960
vt 0.398396 0.196322
vt 0.398961 0.180988
vt 0.583572 0.244181
vt 0.177365 0.245961
vt 0.176432 0.228190
vt 0.000359 0.235320
vt 0.003223 0.223221
vt 0.400928 0.658275
vt 0.274705 0.618964
vt 0.276428 0.605259
vt 0.401717 0.656294
vt 0.121983 0.640948
vt 0.120740 0.632310
vt 0.001623 0.658276
vt 0.000359 0.649640
vt 0.637561 0.500358
vt 0.448568 0.464556
vt 0.450385 0.455454
vt 0.637924 0.498540
vt 0.240719 0.489764
vt 0.239951 0.477123
vt 0.000993 0.500358
vt 0.000359 0.487711
vt 0.334007 0.704097
vt 0.227500 0.712903
vt 0.227036 0.707963
vt 0.333925 0.703109
vt 0.102628 0.730379
vt 0.103024 0.716345
vt 0.000359 0.709627
vt 0.002089 0.703109
vt 0.406107 0.855133
vt 0.305028 0.887774
vt 0.304201 0.874570
vt 0.405875 0.854168
vt 0.185492 0.853564
vt 0.185822 0.839574
vt 0.087073 0.877847
vt 0.086189 0.863962
vt 0.601961 0.359647
vt 0.408174 0.342256
vt 0.408797 0.333056
vt 0.602273 0.356081
vt 0.181280 0.325486
vt 0.180677 0.307830
vt 0.004609 0.359647
vt 0.000359 0.347900
vt 0.405824 0.547826
vt 0.282607 0.604541
vt 0.281063 0.590815
vt 0.405353 0.546646
vt 0.127590 0.573681
vt 0.128914 0.565055
vt 0.000359 0.555310
vt 0.000687 0.546646
vt 0.651653 0.130380
vt 0.448906 0.108052
vt 0.450908 0.099007
vt 0.649401 0.127886
vt 0.239147 0.149628
vt 0.237309 0.137100
vt 0.002198 0.180269
vt 0.000359 0.167741
vt 0.756517 0.178446
vt 0.756873 0.180270
vt 0.708507 0.667999
vt 0.618516 0.618103
vt 0.621687 0.605259
vt 0.708988 0.667132
vt 0.498068 0.619066
vt 0.495582 0.605259
vt 0.407192 0.663206
vt 0.402436 0.650007
vt 0.731478 0.575114
vt 0.627871 0.572816
vt 0.627981 0.567856
vt 0.731500 0.574123
vt 0.507449 0.570144
vt 0.507600 0.563332
vt 0.406543 0.575114
vt 0.407343 0.561108
vt 0.595572 0.248449
vt 0.410049 0.307112
vt 0.408672 0.291830
vt 0.595071 0.246679
vt 0.182362 0.277921
vt 0.183641 0.265322
vt 0.000359 0.259277
vt 0.001650 0.246679
vt 0.820085 0.709979
vt 0.685495 0.697883
vt 0.686006 0.691547
vt 0.820199 0.708714
vt 0.528066 0.683765
vt 0.527701 0.668718
vt 0.404244 0.709979
vt 0.402436 0.701440
vt 0.636177 0.454735
vt 0.447709 0.418289
vt 0.449561 0.409194
vt 0.636548 0.452916
vt 0.239776 0.442703
vt 0.239057 0.430060
vt 0.000359 0.454735
vt 0.002230 0.442498
vt 0.731402 0.579210
vt 0.628520 0.580793
vt 0.628444 0.575833
vt 0.731387 0.578219
vt 0.508082 0.582646
vt 0.507977 0.575833
vt 0.408694 0.586656
vt 0.406543 0.580568
vt 0.733720 0.590753
vt 0.630832 0.592336
vt 0.630756 0.587375
vt 0.733705 0.589763
vt 0.510391 0.594187
vt 0.510286 0.587375
vt 0.408053 0.598024
vt 0.406543 0.591541
vt 0.652350 0.801377
vt 0.461512 0.813908
vt 0.460908 0.804707
vt 0.652229 0.799538
vt 0.238108 0.828576
vt 0.237279 0.815940
vt 0.063452 0.839269
vt 0.064817 0.826911
vt 0.577083 0.875524
vt 0.445689 0.885913
vt 0.445189 0.879577
vt 0.576983 0.874257
vt 0.291874 0.898075
vt 0.291186 0.889375
vt 0.171271 0.907620
vt 0.170561 0.898922
vt 0.637171 0.545928
vt 0.448563 0.510179
vt 0.450381 0.501077
vt 0.637534 0.544109
vt 0.240722 0.535361
vt 0.239955 0.522721
vt 0.000991 0.545928
vt 0.000359 0.533281
vt 0.741540 0.748426
vt 0.638654 0.749746
vt 0.638590 0.744785
vt 0.741527 0.747433
vt 0.518215 0.751292
vt 0.518128 0.744480
vt 0.416200 0.751168
vt 0.417076 0.744482
vt 0.740167 0.755965
vt 0.637284 0.757282
vt 0.637220 0.752321
vt 0.740154 0.754974
vt 0.516839 0.758823
vt 0.516752 0.752011
vt 0.416200 0.758654
vt 0.417223 0.752014
vt 0.999641 0.716978
vt 0.808411 0.719918
vt 0.808270 0.710697
vt 0.999612 0.715134
vt 0.584558 0.723359
vt 0.584363 0.710698
vt 0.404669 0.727598
vt 0.402436 0.715309
vt 0.415482 0.748809
vt 0.283688 0.750835
vt 0.283590 0.744480
vt 0.415462 0.747539
vt 0.129410 0.753206
vt 0.129275 0.744480
vt 0.001488 0.756331
vt 0.000359 0.747735
vt 0.633251 0.022565
vt 0.441739 0.009613
vt 0.442456 0.000359
vt 0.633395 0.020715
vt 0.238394 0.059455
vt 0.236122 0.046997
vt 0.002631 0.098288
vt 0.000359 0.085830
vt 0.716801 0.096437
vt 0.716658 0.098288
vt 0.739830 0.773887
vt 0.636934 0.773887
vt 0.636934 0.768925
vt 0.739830 0.772894
vt 0.516484 0.773887
vt 0.516484 0.767074
vt 0.416200 0.773887
vt 0.416200 0.767074
vt 0.739833 0.766355
vt 0.636936 0.766355
vt 0.636936 0.761394
vt 0.739833 0.765363
vt 0.516485 0.766355
vt 0.516485 0.759542
vt 0.416200 0.766355
vt 0.416200 0.759542
vt 0.596111 0.743759
vt 0.404851 0.743761
vt 0.404851 0.734539
vt 0.596111 0.741917
vt 0.180969 0.743761
vt 0.180969 0.731098
vt 0.000359 0.743761
vt 0.000359 0.731097
vt 0.413107 0.761379
vt 0.281316 0.763404
vt 0.281219 0.757049
vt 0.413088 0.760108
vt 0.127042 0.765776
vt 0.126908 0.757049
vt 0.000494 0.767721
vt 0.000359 0.758995
vn -0.1859 -0.8528 0.4880
vn -0.4055 -0.8718 0.2747
vn -0.3494 -0.8748 0.3355
vn -0.8013 -0.5791 0.1499
vn -0.8069 -0.5710 0.1509
vn -0.9549 -0.2388 0.1762
vn 0.5824 -0.7895 0.1936
vn 0.6901 -0.6206 0.3722
vn 0.6928 -0.6142 0.3777
vn 0.9468 -0.1076 0.3033
vn 0.9445 -0.1136 0.3082
vn 0.9791 0.2005 0.0332
vn 0.0572 -0.3897 0.9191
vn 0.3396 -0.3931 0.8545
vn 0.3343 -0.3934 0.8564
vn 0.8770 -0.1411 0.4592
vn 0.8738 -0.1449 0.4641
vn 0.9875 0.1041 0.1177
vn -0.1626 -0.7945 0.5850
vn -0.4830 -0.8400 0.2471
vn -0.4927 -0.8382 0.2337
vn -0.7882 -0.5162 -0.3350
vn -0.7874 -0.5188 -0.3328
vn -0.8184 -0.3063 -0.4861
vn 0.4139 -0.4067 0.8144
vn 0.1479 -0.5087 0.8481
vn 0.1566 -0.5060 0.8481
vn -0.4402 -0.5837 0.6822
vn -0.4417 -0.5836 0.6814
vn -0.7072 -0.5299 0.4679
vn -0.1958 -0.9629 -0.1856
vn 0.0100 -0.8445 -0.5354
vn -0.0286 -0.8784 -0.4769
vn 0.2298 -0.4519 -0.8620
vn 0.2287 -0.4561 -0.8600
vn 0.2689 -0.2549 -0.9288
vn 0.2450 -0.8747 0.4182
vn 0.1096 -0.5920 0.7984
vn 0.1042 -0.5793 0.8084
vn 0.0048 -0.0752 0.9971
vn 0.0648 0.0091 0.9978
vn 0.1057 -0.2355 0.9661
vn 0.5599 -0.4394 0.7024
vn 0.5813 -0.4472 0.6798
vn 0.9308 -0.3282 0.1610
vn 0.9314 -0.3264 0.1609
vn 0.9794 -0.1386 0.1469
vn -0.4645 -0.8584 -0.2177
vn -0.7266 -0.6656 0.1704
vn -0.7318 -0.6568 0.1818
vn -0.8716 -0.1464 0.4678
vn -0.8701 -0.1505 0.4693
vn -0.9139 0.0063 0.4057
vn -0.6806 -0.5607 -0.4715
vn -0.8396 -0.4702 -0.2718
vn -0.8400 -0.4699 -0.2712
vn -0.9306 -0.2414 0.2752
vn -0.9306 -0.2415 0.2748
vn -0.8144 -0.1083 0.5700
vn 0.7072 -0.6520 -0.2734
vn -0.6764 -0.7077 0.2038
vn -0.5572 -0.7854 0.2695
vn -0.0885 -0.9411 0.3264
vn -0.9631 -0.2684 0.0184
vn -0.9623 -0.2712 0.0185
vn -0.9965 -0.0823 0.0110
vn 0.8023 -0.4492 -0.3931
vn -0.6981 -0.3996 -0.5940
vn -0.6661 -0.3087 -0.6790
vn -0.6640 -0.3034 -0.6834
vn -0.1154 -0.2042 -0.9721
vn -0.1166 -0.2043 -0.9719
vn 0.4645 -0.1266 -0.8765
vn -0.0997 -0.8097 -0.5782
vn -0.1267 -0.6659 -0.7351
vn -0.1271 -0.6631 -0.7376
vn 0.2093 -0.3411 -0.9164
vn 0.2111 -0.3401 -0.9163
vn 0.5344 -0.1382 -0.8338
vn -0.6183 -0.5921 0.5168
vn -0.4578 -0.5410 0.7055
vn -0.4555 -0.5401 0.7076
vn -0.0064 -0.3086 0.9511
vn -0.0047 -0.3076 0.9515
vn 0.2559 -0.1308 0.9578
vn 0.3791 -0.8718 0.3101
vn 0.7218 -0.6769 0.1444
vn 0.7304 -0.6688 0.1387
vn 0.9775 -0.2103 0.0165
vn 0.9762 -0.2163 0.0139
vn 0.9945 -0.0666 0.0804
vn -0.4002 -0.8880 0.2262
vn -0.7418 -0.5954 0.3086
vn -0.6887 -0.6610 0.2979
vn -0.9340 -0.0328 0.3556
vn -0.9340 -0.0395 0.3551
vn -0.9121 0.1884 0.3641
vn -0.2199 -0.7909 -0.5710
vn -0.1456 -0.6199 -0.7710
vn -0.1441 -0.6164 -0.7741
vn 0.0069 -0.2324 -0.9726
vn 0.0060 -0.2347 -0.9720
vn 0.0729 -0.0565 -0.9957
vn -0.5053 -0.7048 -0.4978
vn -0.5590 -0.4952 -0.6650
vn -0.5596 -0.4911 -0.6676
vn -0.5597 -0.0712 -0.8256
vn -0.5599 -0.0730 -0.8253
vn -0.5304 0.1061 -0.8411
vn -0.0029 -0.9550 0.2964
vn 0.1688 -0.8577 0.4856
vn 0.1718 -0.8553 0.4887
vn 0.4397 -0.5553 0.7059
vn 0.4405 -0.5542 0.7063
vn 0.5356 -0.3933 0.7473
vn 0.1672 -0.9846 0.0499
vn 0.4152 -0.9006 0.1285
vn 0.4194 -0.8985 0.1298
vn 0.7583 -0.6069 0.2380
vn 0.7588 -0.6061 0.2382
vn 0.8557 -0.4417 0.2696
vn 0.0399 -0.9673 0.2504
vn -0.3978 -0.8581 0.3247
vn -0.3207 -0.8929 0.3158
vn -0.8143 -0.4519 0.3643
vn -0.8121 -0.4561 0.3638
vn -0.8908 -0.2549 0.3760
vn 0.1671 -0.8188 -0.5492
vn 0.1589 -0.6376 -0.7538
vn 0.1587 -0.6339 -0.7569
vn 0.1172 -0.2316 -0.9657
vn 0.1169 -0.2291 -0.9663
vn 0.0911 -0.0444 -0.9948
vn -0.1273 -0.8688 -0.4784
vn -0.2676 -0.7100 -0.6513
vn -0.2699 -0.7067 -0.6540
vn -0.4606 -0.3261 -0.8255
vn -0.4616 -0.3236 -0.8260
vn -0.5167 -0.1401 -0.8446
vn 0.4240 -0.8463 0.3225
vn 0.5310 -0.6774 0.5090
vn 0.5326 -0.6739 0.5120
vn 0.6158 -0.2837 0.7350
vn 0.6158 -0.2839 0.7350
vn 0.6107 -0.1001 0.7855
vn 0.5922 -0.8021 0.0769
vn 0.7748 -0.6134 0.1532
vn 0.7775 -0.6095 0.1545
vn 0.9465 -0.1991 0.2539
vn 0.9464 -0.1993 0.2539
vn 0.9597 -0.0134 0.2806
vn -0.0071 -0.9032 -0.4291
vn 0.5193 -0.7621 0.3865
vn 0.4934 -0.8087 0.3202
vn 0.1391 -0.9550 -0.2617
vn 0.6270 -0.2928 0.7219
vn 0.6265 -0.2973 0.7205
vn 0.6361 -0.0823 0.7672
vn -0.2509 -0.7097 -0.6583
vn -0.4761 -0.8735 0.1017
vn -0.6896 -0.7090 0.1473
vn -0.6930 -0.7056 0.1481
vn -0.9283 -0.3144 0.1983
vn -0.9286 -0.3135 0.1984
vn -0.9702 -0.1255 0.2073
vn -0.3206 -0.8735 0.3663
vn -0.4644 -0.7090 0.5307
vn -0.4667 -0.7056 0.5333
vn -0.6251 -0.3144 0.7144
vn -0.6253 -0.3135 0.7146
vn -0.6533 -0.1255 0.7466
vn 0.2862 -0.8735 -0.3937
vn 0.4147 -0.7090 -0.5704
vn 0.4167 -0.7056 -0.5732
vn 0.5578 -0.3163 -0.7673
vn 0.5580 -0.3154 -0.7676
vn 0.5830 -0.1296 -0.8020
vn 0.0000 -0.8735 -0.4868
vn 0.0000 -0.7090 -0.7052
vn 0.0000 -0.7056 -0.7086
vn 0.0000 -0.3153 -0.9490
vn 0.0000 -0.3144 -0.9493
vn 0.0000 -0.1274 -0.9918
usemtl Material.zacate
s 1
f 4/1/1 3/2/2 7/3/3 8/4/1
f 3/2/2 2/5/4 6/6/5 7/3/3
f 2/5/4 1/7/6 5/8/6 6/6/5
f 12/9/7 11/10/8 15/11/9 16/12/7
f 11/10/8 10/13/10 14/14/11 15/11/9
f 10/13/10 9/15/12 13/16/12 14/14/11
f 20/17/13 19/18/14 23/19/15 24/20/13
f 19/18/14 18/21/16 22/22/17 23/19/15
f 18/21/16 17/23/18 21/24/18 22/22/17
f 28/25/19 27/26/20 31/27/21 32/28/19
f 27/26/20 26/29/22 30/30/23 31/27/21
f 26/29/22 25/31/24 29/32/24 30/30/23
f 36/33/25 35/34/26 39/35/27 40/36/25
f 35/34/26 34/37/28 38/38/29 39/35/27
f 34/37/28 33/39/30 37/40/30 38/38/29
f 44/41/31 43/42/32 47/43/33 48/44/31
f 43/42/32 42/45/34 46/46/35 47/43/33
f 42/45/34 41/47/36 45/48/36 46/46/35
f 52/49/37 51/50/38 55/51/39 56/52/37
f 51/50/38 50/53/40 54/54/40 55/51/39
f 50/53/40 49/55/41 53/56/41 54/54/40
f 60/57/42 59/58/43 63/59/44 64/60/42
f 59/58/43 58/61/45 62/62/46 63/59/44
f 58/61/45 57/63/47 61/64/47 62/62/46
f 68/65/48 67/66/49 71/67/50 72/68/48
f 67/66/49 66/69/51 70/70/52 71/67/50
f 66/69/51 65/71/53 69/72/53 70/70/52
f 76/73/54 75/74/55 79/75/56 80/76/54
f 75/74/55 74/77/57 78/78/58 79/75/56
f 74/77/57 73/79/59 77/80/59 78/78/58
f 84/81/60 83/82/61 87/83/62 88/84/63
f 83/82/61 82/85/64 86/86/65 87/83/62
f 82/85/64 81/87/66 85/88/66 86/86/65
f 84/81/60 88/84/63 90/89/67 89/90/67
f 94/91/68 93/92/69 97/93/70 98/94/68
f 93/92/69 92/95/71 96/96/72 97/93/70
f 92/95/71 91/97/73 95/98/73 96/96/72
f 102/99/74 101/100/75 105/101/76 106/102/74
f 101/100/75 100/103/77 104/104/78 105/101/76
f 100/103/77 99/105/79 103/106/79 104/104/78
f 110/107/80 109/108/81 113/109/82 114/110/80
f 109/108/81 108/111/83 112/112/84 113/109/82
f 108/111/83 107/113/85 111/114/85 112/112/84
f 118/115/86 117/116/87 121/117/88 122/118/86
f 117/116/87 116/119/89 120/120/90 121/117/88
f 116/119/89 115/121/91 119/122/91 120/120/90
f 126/123/92 125/124/93 129/125/94 130/126/92
f 125/124/93 124/127/95 128/128/96 129/125/94
f 124/127/95 123/129/97 127/130/97 128/128/96
f 134/131/98 133/132/99 137/133/100 138/134/98
f 133/132/99 132/135/101 136/136/102 137/133/100
f 132/135/101 131/137/103 135/138/103 136/136/102
f 142/139/104 141/140/105 145/141/106 146/142/104
f 141/140/105 140/143/107 144/144/108 145/141/106
f 140/143/107 139/145/109 143/146/109 144/144/108
f 150/147/110 149/148/111 153/149/112 154/150/110
f 149/148/111 148/151/113 152/152/114 153/149/112
f 148/151/113 147/153/115 151/154/115 152/152/114
f 158/155/116 157/156/117 161/157/118 162/158/116
f 157/156/117 156/159/119 160/160/120 161/157/118
f 156/159/119 155/161/121 159/162/121 160/160/120
f 166/163/122 165/164/123 169/165/124 170/166/122
f 165/164/123 164/167/125 168/168/126 169/165/124
f 164/167/125 163/169/127 167/170/127 168/168/126
f 174/171/128 173/172/129 177/173/130 178/174/128
f 173/172/129 172/175/131 176/176/132 177/173/130
f 172/175/131 171/177/133 175/178/133 176/176/132
f 182/179/134 181/180/135 185/181/136 186/182/134
f 181/180/135 180/183/137 184/184/138 185/181/136
f 180/183/137 179/185/139 183/186/139 184/184/138
f 190/187/140 189/188/141 193/189/142 194/190/140
f 189/188/141 188/191/143 192/192/144 193/189/142
f 188/191/143 187/193/145 191/194/145 192/192/144
f 198/195/146 197/196/147 201/197/148 202/198/146
f 197/196/147 196/199/149 200/200/150 201/197/148
f 196/199/149 195/201/151 199/202/151 200/200/150
f 206/203/152 205/204/153 209/205/154 210/206/155
f 205/204/153 204/207/156 208/208/157 209/205/154
f 204/207/156 203/209/158 207/210/158 208/208/157
f 206/203/152 210/206/155 212/211/159 211/212/159
f 216/213/160 215/214/161 219/215/162 220/216/160
f 215/214/161 214/217/163 218/218/164 219/215/162
f 214/217/163 213/219/165 217/220/165 218/218/164
f 224/221/166 223/222/167 227/223/168 228/224/166
f 223/222/167 222/225/169 226/226/170 227/223/168
f 222/225/169 221/227/171 225/228/171 226/226/170
f 232/229/172 231/230/173 235/231/174 236/232/172
f 231/230/173 230/233/175 234/234/176 235/231/174
f 230/233/175 229/235/177 233/236/177 234/234/176
f 240/237/178 239/238/179 243/239/180 244/240/178
f 239/238/179 238/241/181 242/242/182 243/239/180
f 238/241/181 237/243/183 241/244/183 242/242/182
